<svg width="128" height="128" viewBox="0 0 128 128" fill="none" xmlns="http://www.w3.org/2000/svg">
<rect width="128" height="128" fill="#333333"/>
<path d="M16.022 58.606L16.022 20.806C16.0273 19.5278 16.5371 18.3035 17.4405 17.3993C18.3439 16.4951 19.5679 15.9843 20.846 15.978L57.566 15.978L57.566 16.262C57.566 39.398 38.966 58.278 16.022 58.606ZM16.022 89.03L16.022 72.85C47.014 72.518 72.09 47.158 72.23 15.978L87.846 15.978L87.846 16.262C87.846 56.194 55.67 88.746 16.022 89.03ZM16.022 107.15L16.022 103.27C63.714 102.994 102.37 63.958 102.51 15.978L107.15 15.978C109.798 15.978 111.974 18.154 111.974 20.806L111.974 51.366C102.038 78.91 80.842 101.006 53.966 111.978L20.802 111.978C18.15 111.978 16.022 109.802 16.022 107.15ZM111.974 82.83L111.974 107.198C111.977 107.826 111.855 108.449 111.616 109.029C111.377 109.61 111.025 110.138 110.581 110.582C110.137 111.027 109.61 111.379 109.029 111.618C108.448 111.858 107.826 111.98 107.198 111.978L83.542 111.978C88.51 108.338 94.142 103.794 98.59 99.346C103.558 94.33 108.05 88.466 111.978 82.834L111.974 82.83Z" fill="white"/>
</svg>
